<svg width="720" height="440" viewBox="0 0 720 440" xmlns="http://www.w3.org/2000/svg">
  <defs>
    <linearGradient id="bg" x1="0" y1="0" x2="1" y2="1">
      <stop offset="0%" stop-color="#07080f"/>
      <stop offset="100%" stop-color="#0a0c15"/>
    </linearGradient>
  </defs>

  <rect width="720" height="440" fill="url(#bg)"/>

  <text x="36" y="36" fill="#a78bfa" font-size="20" font-weight="700" font-family="Inter, Segoe UI, Arial, sans-serif">Prism</text>
  <text x="108" y="36" fill="#334155" font-size="13" font-family="Inter, Segoe UI, Arial, sans-serif">portfolio rebalancer</text>
  <text x="36" y="56" fill="#1e293b" font-size="11" font-family="Inter, Segoe UI, Arial, sans-serif">wallet: 9WzDXwB...AWWM · total: $24,820 · last check: 2 min ago</text>

  <rect x="620" y="22" width="80" height="24" rx="12" fill="#052e16"/>
  <text x="660" y="39" fill="#4ade80" font-size="11" font-weight="600" text-anchor="middle" font-family="Inter, Segoe UI, Arial, sans-serif">BALANCED</text>

  <g transform="rotate(-90 220 220)">
    <circle cx="220" cy="220" r="74" fill="none" stroke="#111827" stroke-width="34"/>
    <circle cx="220" cy="220" r="74" fill="none" stroke="#6366f1" stroke-width="34" stroke-dasharray="42 58" stroke-dashoffset="0" pathLength="100"/>
    <circle cx="220" cy="220" r="74" fill="none" stroke="#22d3ee" stroke-width="34" stroke-dasharray="11 89" stroke-dashoffset="-42" pathLength="100"/>
    <circle cx="220" cy="220" r="74" fill="none" stroke="#f472b6" stroke-width="34" stroke-dasharray="16 84" stroke-dashoffset="-53" pathLength="100"/>
    <circle cx="220" cy="220" r="74" fill="none" stroke="#fb923c" stroke-width="34" stroke-dasharray="9 91" stroke-dashoffset="-69" pathLength="100"/>
    <circle cx="220" cy="220" r="74" fill="none" stroke="#facc15" stroke-width="34" stroke-dasharray="8 92" stroke-dashoffset="-78" pathLength="100"/>
    <circle cx="220" cy="220" r="74" fill="none" stroke="#4ade80" stroke-width="34" stroke-dasharray="14 86" stroke-dashoffset="-86" pathLength="100"/>
  </g>

  <circle cx="220" cy="220" r="48" fill="#07080f"/>
  <text x="220" y="215" fill="#e2e8f0" font-size="16" font-weight="700" text-anchor="middle" font-family="Inter, Segoe UI, Arial, sans-serif">$24.8K</text>
  <text x="220" y="232" fill="#475569" font-size="10" text-anchor="middle" font-family="Inter, Segoe UI, Arial, sans-serif">total value</text>

  <rect x="340" y="100" width="12" height="12" rx="3" fill="#6366f1"/>
  <text x="360" y="111" fill="#e2e8f0" font-size="13" font-weight="600" font-family="Inter, Segoe UI, Arial, sans-serif">SOL</text>
  <text x="420" y="111" fill="#475569" font-size="12" font-family="Inter, Segoe UI, Arial, sans-serif">current</text>
  <rect x="480" y="100" width="180" height="10" rx="5" fill="#1e293b"/>
  <rect x="480" y="100" width="108" height="10" rx="5" fill="#6366f1"/>
  <text x="668" y="111" fill="#6366f1" font-size="12" font-weight="600" font-family="Inter, Segoe UI, Arial, sans-serif">42%</text>
  <text x="700" y="111" fill="#475569" font-size="11" font-family="Inter, Segoe UI, Arial, sans-serif">/ 40%</text>

  <rect x="340" y="128" width="12" height="12" rx="3" fill="#22d3ee"/>
  <text x="360" y="139" fill="#e2e8f0" font-size="13" font-weight="600" font-family="Inter, Segoe UI, Arial, sans-serif">JUP</text>
  <text x="420" y="139" fill="#475569" font-size="12" font-family="Inter, Segoe UI, Arial, sans-serif">current</text>
  <rect x="480" y="128" width="180" height="10" rx="5" fill="#1e293b"/>
  <rect x="480" y="128" width="27" height="10" rx="5" fill="#22d3ee"/>
  <text x="668" y="139" fill="#22d3ee" font-size="12" font-weight="600" font-family="Inter, Segoe UI, Arial, sans-serif">11%</text>
  <text x="700" y="139" fill="#f87171" font-size="11" font-family="Inter, Segoe UI, Arial, sans-serif">/ 15%</text>

  <rect x="340" y="156" width="12" height="12" rx="3" fill="#f472b6"/>
  <text x="360" y="167" fill="#e2e8f0" font-size="13" font-weight="600" font-family="Inter, Segoe UI, Arial, sans-serif">JTO</text>
  <text x="420" y="167" fill="#475569" font-size="12" font-family="Inter, Segoe UI, Arial, sans-serif">current</text>
  <rect x="480" y="156" width="180" height="10" rx="5" fill="#1e293b"/>
  <rect x="480" y="156" width="36" height="10" rx="5" fill="#f472b6"/>
  <text x="668" y="167" fill="#f472b6" font-size="12" font-weight="600" font-family="Inter, Segoe UI, Arial, sans-serif">16%</text>
  <text x="700" y="167" fill="#4ade80" font-size="11" font-family="Inter, Segoe UI, Arial, sans-serif">/ 15%</text>

  <rect x="340" y="184" width="12" height="12" rx="3" fill="#fb923c"/>
  <text x="360" y="195" fill="#e2e8f0" font-size="13" font-weight="600" font-family="Inter, Segoe UI, Arial, sans-serif">BONK</text>
  <text x="420" y="195" fill="#475569" font-size="12" font-family="Inter, Segoe UI, Arial, sans-serif">current</text>
  <rect x="480" y="184" width="180" height="10" rx="5" fill="#1e293b"/>
  <rect x="480" y="184" width="20" height="10" rx="5" fill="#fb923c"/>
  <text x="668" y="195" fill="#fb923c" font-size="12" font-weight="600" font-family="Inter, Segoe UI, Arial, sans-serif">9%</text>
  <text x="700" y="195" fill="#475569" font-size="11" font-family="Inter, Segoe UI, Arial, sans-serif">/ 10%</text>

  <rect x="340" y="212" width="12" height="12" rx="3" fill="#facc15"/>
  <text x="360" y="223" fill="#e2e8f0" font-size="13" font-weight="600" font-family="Inter, Segoe UI, Arial, sans-serif">WIF</text>
  <text x="420" y="223" fill="#475569" font-size="12" font-family="Inter, Segoe UI, Arial, sans-serif">current</text>
  <rect x="480" y="212" width="180" height="10" rx="5" fill="#1e293b"/>
  <rect x="480" y="212" width="18" height="10" rx="5" fill="#facc15"/>
  <text x="668" y="223" fill="#facc15" font-size="12" font-weight="600" font-family="Inter, Segoe UI, Arial, sans-serif">8%</text>
  <text x="700" y="223" fill="#f87171" font-size="11" font-family="Inter, Segoe UI, Arial, sans-serif">/ 10%</text>

  <rect x="340" y="240" width="12" height="12" rx="3" fill="#4ade80"/>
  <text x="360" y="251" fill="#e2e8f0" font-size="13" font-weight="600" font-family="Inter, Segoe UI, Arial, sans-serif">USDC</text>
  <text x="420" y="251" fill="#475569" font-size="12" font-family="Inter, Segoe UI, Arial, sans-serif">current</text>
  <rect x="480" y="240" width="180" height="10" rx="5" fill="#1e293b"/>
  <rect x="480" y="240" width="26" height="10" rx="5" fill="#4ade80"/>
  <text x="668" y="251" fill="#4ade80" font-size="12" font-weight="600" font-family="Inter, Segoe UI, Arial, sans-serif">14%</text>
  <text x="700" y="251" fill="#f87171" font-size="11" font-family="Inter, Segoe UI, Arial, sans-serif">/ 10%</text>

  <rect x="340" y="276" width="368" height="72" rx="10" fill="#12090a" stroke="#7f1d1d" stroke-width="1"/>
  <text x="364" y="298" fill="#f87171" font-size="12" font-weight="700" font-family="Inter, Segoe UI, Arial, sans-serif">REBALANCE NEEDED</text>
  <text x="364" y="316" fill="#64748b" font-size="11" font-family="Inter, Segoe UI, Arial, sans-serif">SOL +2% overweight · JUP -4% underweight · WIF -2% underweight</text>
  <text x="364" y="332" fill="#64748b" font-size="11" font-family="Inter, Segoe UI, Arial, sans-serif">Estimated 2 trades · ~$840 total swap volume</text>

  <rect x="340" y="362" width="368" height="40" rx="8" fill="#0a0c15" stroke="#1e293b" stroke-width="1"/>
  <text x="364" y="384" fill="#334155" font-size="11" font-family="Inter, Segoe UI, Arial, sans-serif">next check in 58m · threshold: 5% · dry run: enabled · jupiter swaps</text>

  <text x="360" y="428" fill="#0f172a" font-size="10" text-anchor="middle" font-family="Inter, Segoe UI, Arial, sans-serif">prism · jupiter · helius · claude agent sdk</text>
</svg>
