<svg width="720" height="440" viewBox="0 0 720 440" xmlns="http://www.w3.org/2000/svg" font-family="'Inter','Segoe UI','Arial',sans-serif">
  <defs>
    <linearGradient id="bg" x1="0" y1="0" x2="1" y2="1">
      <stop offset="0%" stop-color="#07080f"/>
      <stop offset="100%" stop-color="#0a0c15"/>
    </linearGradient>
  </defs>
  <rect width="720" height="440" fill="url(#bg)"/>

  <!-- header -->
  <text x="36" y="36" fill="#a78bfa" font-size="20" font-weight="700">Prism</text>
  <text x="108" y="36" fill="#334155" font-size="13">portfolio rebalancer</text>
  <text x="36" y="56" fill="#1e293b" font-size="11">wallet: 9WzDXwB…AWWM · total: $24,820 · last check: 2 min ago</text>
  <rect x="620" y="22" width="80" height="24" rx="12" fill="#052e16"/>
  <text x="660" y="39" fill="#4ade80" font-size="11" font-weight="600" text-anchor="middle">BALANCED</text>

  <!-- ── donut chart (manual arc segments) ── -->
  <!-- SOL 42% — blue-purple #6366f1 -->
  <!-- arc from 270° for 42% = 151.2° -->
  <path d="M 220,220 L 220,150 A 70,70 0 0,1 280.4,162.8 Z" fill="#6366f1" opacity="0"/>
  <!-- Using pre-drawn arcs as thick paths -->
  <!-- SOL 40% — start 0deg, sweep 144deg -->
  <path d="M220,150 A70,70 0 0,1 284.9,204.7 L220,220 Z" fill="#6366f1"/>
  <path d="M220,220 L284.9,204.7 A70,70 0 0,1 262.7,284.7 L220,220 Z" fill="#6366f1"/>
  <!-- JUP 15% — 54deg -->
  <path d="M220,220 L262.7,284.7 A70,70 0 0,1 190.7,288.7 L220,220 Z" fill="#22d3ee"/>
  <!-- JTO 15% — 54deg -->
  <path d="M220,220 L190.7,288.7 A70,70 0 0,1 151.8,257.8 L220,220 Z" fill="#f472b6"/>
  <!-- BONK 10% — 36deg -->
  <path d="M220,220 L151.8,257.8 A70,70 0 0,1 150.1,183.5 L220,220 Z" fill="#fb923c"/>
  <!-- WIF 10% — 36deg -->
  <path d="M220,220 L150.1,183.5 A70,70 0 0,1 185.4,153.9 L220,220 Z" fill="#facc15"/>
  <!-- USDC 10% — 36deg -->
  <path d="M220,220 L185.4,153.9 A70,70 0 0,1 220,150 L220,220 Z" fill="#4ade80"/>
  <!-- inner circle (donut hole) -->
  <circle cx="220" cy="220" r="44" fill="#07080f"/>
  <text x="220" y="215" fill="#e2e8f0" font-size="16" font-weight="700" text-anchor="middle">$24.8K</text>
  <text x="220" y="232" fill="#475569" font-size="10" text-anchor="middle">total value</text>

  <!-- ── legend + allocation bars ── -->
  <!-- SOL -->
  <rect x="340" y="100" width="12" height="12" rx="3" fill="#6366f1"/>
  <text x="360" y="111" fill="#e2e8f0" font-size="13" font-weight="600">SOL</text>
  <text x="420" y="111" fill="#475569" font-size="12">current</text>
  <rect x="480" y="100" width="180" height="10" rx="5" fill="#1e293b"/>
  <rect x="480" y="100" width="108" height="10" rx="5" fill="#6366f1"/>
  <text x="668" y="111" fill="#6366f1" font-size="12" font-weight="600">42%</text>
  <text x="700" y="111" fill="#475569" font-size="11">/ 40%</text>

  <!-- JUP -->
  <rect x="340" y="128" width="12" height="12" rx="3" fill="#22d3ee"/>
  <text x="360" y="139" fill="#e2e8f0" font-size="13" font-weight="600">JUP</text>
  <text x="420" y="139" fill="#475569" font-size="12">current</text>
  <rect x="480" y="128" width="180" height="10" rx="5" fill="#1e293b"/>
  <rect x="480" y="128" width="27" height="10" rx="5" fill="#22d3ee"/>
  <text x="668" y="139" fill="#22d3ee" font-size="12" font-weight="600">11%</text>
  <text x="700" y="139" fill="#f87171" font-size="11">/ 15%</text>

  <!-- JTO -->
  <rect x="340" y="156" width="12" height="12" rx="3" fill="#f472b6"/>
  <text x="360" y="167" fill="#e2e8f0" font-size="13" font-weight="600">JTO</text>
  <text x="420" y="167" fill="#475569" font-size="12">current</text>
  <rect x="480" y="156" width="180" height="10" rx="5" fill="#1e293b"/>
  <rect x="480" y="156" width="36" height="10" rx="5" fill="#f472b6"/>
  <text x="668" y="167" fill="#f472b6" font-size="12" font-weight="600">16%</text>
  <text x="700" y="167" fill="#4ade80" font-size="11">/ 15%</text>

  <!-- BONK -->
  <rect x="340" y="184" width="12" height="12" rx="3" fill="#fb923c"/>
  <text x="360" y="195" fill="#e2e8f0" font-size="13" font-weight="600">BONK</text>
  <text x="420" y="195" fill="#475569" font-size="12">current</text>
  <rect x="480" y="184" width="180" height="10" rx="5" fill="#1e293b"/>
  <rect x="480" y="184" width="20" height="10" rx="5" fill="#fb923c"/>
  <text x="668" y="195" fill="#fb923c" font-size="12" font-weight="600">9%</text>
  <text x="700" y="195" fill="#475569" font-size="11">/ 10%</text>

  <!-- WIF -->
  <rect x="340" y="212" width="12" height="12" rx="3" fill="#facc15"/>
  <text x="360" y="223" fill="#e2e8f0" font-size="13" font-weight="600">WIF</text>
  <text x="420" y="223" fill="#475569" font-size="12">current</text>
  <rect x="480" y="212" width="180" height="10" rx="5" fill="#1e293b"/>
  <rect x="480" y="212" width="18" height="10" rx="5" fill="#facc15"/>
  <text x="668" y="223" fill="#facc15" font-size="12" font-weight="600">8%</text>
  <text x="700" y="223" fill="#f87171" font-size="11">/ 10%</text>

  <!-- USDC -->
  <rect x="340" y="240" width="12" height="12" rx="3" fill="#4ade80"/>
  <text x="360" y="251" fill="#e2e8f0" font-size="13" font-weight="600">USDC</text>
  <text x="420" y="251" fill="#475569" font-size="12">current</text>
  <rect x="480" y="240" width="180" height="10" rx="5" fill="#1e293b"/>
  <rect x="480" y="240" width="26" height="10" rx="5" fill="#4ade80"/>
  <text x="668" y="251" fill="#4ade80" font-size="12" font-weight="600">14%</text>
  <text x="700" y="251" fill="#f87171" font-size="11">/ 10%</text>

  <!-- drift alert box -->
  <rect x="340" y="276" width="368" height="72" rx="10" fill="#12090a" stroke="#7f1d1d" stroke-width="1"/>
  <text x="364" y="298" fill="#f87171" font-size="12" font-weight="700">REBALANCE NEEDED</text>
  <text x="364" y="316" fill="#64748b" font-size="11">SOL +2% overweight · JUP −4% underweight · WIF −2% underweight</text>
  <text x="364" y="332" fill="#64748b" font-size="11">Estimated 2 trades · ~$840 total swap volume</text>

  <!-- next check -->
  <rect x="340" y="362" width="368" height="40" rx="8" fill="#0a0c15" stroke="#1e293b" stroke-width="1"/>
  <text x="364" y="384" fill="#334155" font-size="11">next check in 58m · threshold: 5% · dry run: enabled · jupiter swaps</text>

  <text x="360" y="428" fill="#0f172a" font-size="10" text-anchor="middle">prism · jupiter · helius · claude agent sdk</text>
</svg>
